<svg width="32" height="32" viewBox="0 0 32 32" fill="none" xmlns="http://www.w3.org/2000/svg">
<path fill-rule="evenodd" clip-rule="evenodd" d="M9.9546 5.81818H11.8637V7.72727H15.0455V5.81818H16.9546V7.72727H20.1364V5.81818H22.0455V7.72727H25.1819C25.7342 7.72727 26.1819 8.17498 26.1819 8.72727V10.9091H5.81824V8.72727C5.81824 8.17498 6.26595 7.72727 6.81824 7.72727H9.9546V5.81818ZM5.81824 25.1818C5.81824 25.7341 6.26595 26.1818 6.81824 26.1818H25.1819C25.7342 26.1818 26.1819 25.7341 26.1819 25.1818V12.8182H5.81824V25.1818ZM9.31824 15.3636H12.5001V18.5454H9.31824V15.3636ZM12.5001 20.4545H9.31824V23.6364H12.5001V20.4545ZM14.4091 15.364H17.591V18.5458H14.4091V15.364ZM17.591 20.4545H14.4091V23.6364H17.591V20.4545ZM19.5001 15.3636H22.6819V18.5454H19.5001V15.3636Z" fill="#17A1CC"/>
</svg>
