<svg width="433" height="404" viewBox="0 0 433 404" fill="none" xmlns="http://www.w3.org/2000/svg">
<path d="M75.4658 14.789H48.0853L47.0708 15.5503V39.9931H54.6504V30.8272L55.3739 30.1766H75.4668C80.54 30.1766 82.9185 28.8069 82.9185 25.2923V19.6801C82.9175 16.1597 80.54 14.789 75.4658 14.789ZM75.4658 23.8256C75.4658 25.4814 74.3742 25.8253 71.9957 25.8253H55.4569L54.6494 25.0376V19.8016L55.3729 19.1373H71.9957C74.3742 19.1373 75.4658 19.4773 75.4658 21.141V23.8256Z" fill="white"/>
<path d="M96.7402 19.4126L103.262 29.0018L102.901 29.9307H88.4771L84.7952 34.4759H106.266L107.754 35.3852L111.087 39.999H119.761L100.748 14.4764" fill="white"/>
<path d="M182.99 35.0344V28.2503L183.771 27.5743H198.282V23.2544H175.283V39.998H209.208V35.6987H183.805" fill="white"/>
<path d="M209.566 14.789H175.283V19.539H209.566V14.789Z" fill="white"/>
<path d="M137.045 19.2872H164.665C164.239 15.7629 162.06 14.7851 156.532 14.7851H136.751C130.513 14.7851 128.523 16.0069 128.523 20.7442V34.035C128.523 38.7772 130.513 39.999 136.751 39.999H156.532C162.141 39.999 164.289 38.9418 164.435 35.2862H137.045L136.233 34.519V19.8006" fill="white"/>
<path d="M28.6398 24.6104H8.54697L7.95528 23.9569V19.6438L8.54404 19.1873H35.6307L36.0007 18.279C35.0781 15.8971 32.6889 14.786 28.2522 14.786H9.43645C3.20228 14.786 1.20949 16.0078 1.20949 20.7451V23.5317C1.20949 28.2748 3.20228 29.4947 9.43645 29.4947H29.4844L30.1142 30.0492V34.5582L29.6006 35.2617H6.66842V35.2402H0.661747C0.661747 35.2402 -0.0256228 35.586 0.000739353 35.7477C0.513337 39.0614 2.76291 40 8.1486 40H28.6398C34.873 40 36.9254 38.7782 36.9254 34.036V30.5646C36.9254 25.8303 34.873 24.6104 28.6398 24.6104Z" fill="white"/>
<path d="M231.133 14.6851H219.854L219.242 15.854L231.767 25.016C234.14 23.6375 236.721 22.2403 239.529 20.8617" fill="white"/>
<path d="M241.238 31.9442L252.247 40H263.663L264.135 38.933L247.697 26.859C245.514 28.4669 243.357 30.1649 241.238 31.9442Z" fill="white"/>
<path d="M229.454 39.9814H219.25L218.388 38.6263C225.326 31.904 256.357 3.08732 323.809 0C323.809 0 267.193 1.91647 229.454 39.9814Z" fill="#17A1CC"/>
<path d="M39.24 187.8V157.2C39.24 154.8 38.88 153.3 38.16 152.7C37.44 151.98 35.94 151.62 33.66 151.62H21.42C11.94 151.62 7.2 146.88 7.2 137.4V106.26C7.2 96.78 11.94 92.04 21.42 92.04H37.26C46.74 92.04 51.48 96.78 51.48 106.26V123.54H39.06V108.24C39.06 105.84 38.7 104.34 37.98 103.74C37.38 103.02 35.88 102.66 33.48 102.66H25.2C22.8 102.66 21.24 103.02 20.52 103.74C19.92 104.34 19.62 105.84 19.62 108.24V135.42C19.62 137.7 19.92 139.2 20.52 139.92C21.24 140.64 22.8 141 25.2 141H37.44C46.92 141 51.66 145.74 51.66 155.22V189.78C51.66 199.26 46.92 204 37.44 204H21.78C12.3 204 7.56 199.26 7.56 189.78V172.5H19.98V187.8C19.98 190.2 20.28 191.76 20.88 192.48C21.6 193.08 23.16 193.38 25.56 193.38H33.66C35.94 193.38 37.44 193.08 38.16 192.48C38.88 191.76 39.24 190.2 39.24 187.8ZM89.3067 116.7H96.5067C105.987 116.7 110.727 121.44 110.727 130.92V189.78C110.727 199.26 105.987 204 96.5067 204H89.3067C84.0267 204 80.7267 202.02 79.4067 198.06V229.38H66.9867V116.7H79.4067V122.64C80.7267 118.68 84.0267 116.7 89.3067 116.7ZM98.3067 187.8V132.9C98.3067 130.62 97.9467 129.12 97.2267 128.4C96.6267 127.68 95.1267 127.32 92.7267 127.32H85.5267C83.3667 127.32 81.8067 127.8 80.8467 128.76C79.8867 129.72 79.4067 131.4 79.4067 133.8V186.9C79.4067 189.3 79.8867 190.98 80.8467 191.94C81.8067 192.9 83.3667 193.38 85.5267 193.38H92.7267C95.1267 193.38 96.6267 193.08 97.2267 192.48C97.9467 191.76 98.3067 190.2 98.3067 187.8ZM156.469 116.7H168.889V204H156.469V198.06C155.149 202.02 151.849 204 146.569 204H139.369C129.889 204 125.149 199.26 125.149 189.78V130.92C125.149 121.44 129.889 116.7 139.369 116.7H146.569C151.849 116.7 155.149 118.68 156.469 122.64V116.7ZM143.149 193.38H150.349C152.509 193.38 154.069 192.9 155.029 191.94C155.989 190.98 156.469 189.3 156.469 186.9V133.8C156.469 131.4 155.989 129.72 155.029 128.76C154.069 127.8 152.509 127.32 150.349 127.32H143.149C140.749 127.32 139.189 127.68 138.469 128.4C137.869 129.12 137.569 130.62 137.569 132.9V187.8C137.569 190.2 137.869 191.76 138.469 192.48C139.189 193.08 140.749 193.38 143.149 193.38ZM229.212 142.62H216.792V132.9C216.792 130.62 216.432 129.12 215.712 128.4C215.112 127.68 213.612 127.32 211.212 127.32H202.212C199.812 127.32 198.252 127.68 197.532 128.4C196.932 129.12 196.632 130.62 196.632 132.9V187.8C196.632 190.2 196.932 191.76 197.532 192.48C198.252 193.08 199.812 193.38 202.212 193.38H211.212C213.612 193.38 215.112 193.08 215.712 192.48C216.432 191.76 216.792 190.2 216.792 187.8V178.08H229.212V189.78C229.212 199.26 224.472 204 214.992 204H198.432C188.952 204 184.212 199.26 184.212 189.78V130.92C184.212 121.44 188.952 116.7 198.432 116.7H214.992C224.472 116.7 229.212 121.44 229.212 130.92V142.62ZM257.867 116.7H274.427C283.907 116.7 288.647 121.44 288.647 130.92V164.58H256.067V187.8C256.067 190.2 256.427 191.76 257.147 192.48C257.867 193.08 259.367 193.38 261.647 193.38H270.107C272.507 193.38 274.007 193.08 274.607 192.48C275.327 191.76 275.687 190.2 275.687 187.8V179.88H288.107V189.78C288.107 199.26 283.367 204 273.887 204H257.867C248.387 204 243.647 199.26 243.647 189.78V130.92C243.647 121.44 248.387 116.7 257.867 116.7ZM256.067 153.96H276.227V132.9C276.227 130.62 275.867 129.12 275.147 128.4C274.427 127.68 272.927 127.32 270.647 127.32H261.647C259.367 127.32 257.867 127.68 257.147 128.4C256.427 129.12 256.067 130.62 256.067 132.9V153.96ZM20.52 366H9.9V254.04H23.4L42.66 326.04L62.1 254.04H75.6V366H64.98V281.22L49.32 341.7H36.18L20.52 281.22V366ZM93.1697 259.98V245.4H106.31V259.98H93.1697ZM105.95 366H93.5297V278.7H105.95V366ZM149.002 349.98V333.42C149.002 331.14 148.642 329.64 147.922 328.92C147.202 328.2 145.702 327.84 143.422 327.84H134.602C125.122 327.84 120.382 323.1 120.382 313.62V292.92C120.382 283.44 125.122 278.7 134.602 278.7H146.842C156.322 278.7 161.062 283.44 161.062 292.92V301.74H148.822V294.72C148.822 292.32 148.462 290.82 147.742 290.22C147.142 289.5 145.642 289.14 143.242 289.14H138.202C135.802 289.14 134.242 289.5 133.522 290.22C132.922 290.82 132.622 292.32 132.622 294.72V311.82C132.622 314.1 132.922 315.6 133.522 316.32C134.242 317.04 135.802 317.4 138.202 317.4H147.022C156.502 317.4 161.242 322.14 161.242 331.62V351.78C161.242 361.26 156.502 366 147.022 366H134.962C125.482 366 120.742 361.26 120.742 351.78V342.96H132.982V349.98C132.982 352.26 133.282 353.76 133.882 354.48C134.602 355.2 136.162 355.56 138.562 355.56H143.422C145.702 355.56 147.202 355.2 147.922 354.48C148.642 353.76 149.002 352.26 149.002 349.98ZM202.44 349.98V333.42C202.44 331.14 202.08 329.64 201.36 328.92C200.64 328.2 199.14 327.84 196.86 327.84H188.04C178.56 327.84 173.82 323.1 173.82 313.62V292.92C173.82 283.44 178.56 278.7 188.04 278.7H200.28C209.76 278.7 214.5 283.44 214.5 292.92V301.74H202.26V294.72C202.26 292.32 201.9 290.82 201.18 290.22C200.58 289.5 199.08 289.14 196.68 289.14H191.64C189.24 289.14 187.68 289.5 186.96 290.22C186.36 290.82 186.06 292.32 186.06 294.72V311.82C186.06 314.1 186.36 315.6 186.96 316.32C187.68 317.04 189.24 317.4 191.64 317.4H200.46C209.94 317.4 214.68 322.14 214.68 331.62V351.78C214.68 361.26 209.94 366 200.46 366H188.4C178.92 366 174.18 361.26 174.18 351.78V342.96H186.42V349.98C186.42 352.26 186.72 353.76 187.32 354.48C188.04 355.2 189.6 355.56 192 355.56H196.86C199.14 355.56 200.64 355.2 201.36 354.48C202.08 353.76 202.44 352.26 202.44 349.98ZM228.697 259.98V245.4H241.837V259.98H228.697ZM241.477 366H229.057V278.7H241.477V366ZM271.029 278.7H289.389C298.869 278.7 303.609 283.44 303.609 292.92V351.78C303.609 361.26 298.869 366 289.389 366H271.029C261.549 366 256.809 361.26 256.809 351.78V292.92C256.809 283.44 261.549 278.7 271.029 278.7ZM291.369 349.8V294.9C291.369 292.62 291.009 291.12 290.289 290.4C289.569 289.68 288.069 289.32 285.789 289.32H274.629C272.349 289.32 270.849 289.68 270.129 290.4C269.409 291.12 269.049 292.62 269.049 294.9V349.8C269.049 352.2 269.409 353.76 270.129 354.48C270.849 355.08 272.349 355.38 274.629 355.38H285.789C288.069 355.38 289.569 355.08 290.289 354.48C291.009 353.76 291.369 352.2 291.369 349.8ZM341.201 278.7H348.401C357.881 278.7 362.621 283.44 362.621 292.92V366H350.201V294.9C350.201 292.62 349.841 291.12 349.121 290.4C348.521 289.68 347.021 289.32 344.621 289.32H337.421C335.261 289.32 333.701 289.8 332.741 290.76C331.781 291.72 331.301 293.4 331.301 295.8V366H318.881V278.7H331.301V284.64C332.621 280.68 335.921 278.7 341.201 278.7ZM405.643 349.98V333.42C405.643 331.14 405.283 329.64 404.563 328.92C403.843 328.2 402.343 327.84 400.063 327.84H391.243C381.763 327.84 377.023 323.1 377.023 313.62V292.92C377.023 283.44 381.763 278.7 391.243 278.7H403.483C412.963 278.7 417.703 283.44 417.703 292.92V301.74H405.463V294.72C405.463 292.32 405.103 290.82 404.383 290.22C403.783 289.5 402.283 289.14 399.883 289.14H394.843C392.443 289.14 390.883 289.5 390.163 290.22C389.563 290.82 389.263 292.32 389.263 294.72V311.82C389.263 314.1 389.563 315.6 390.163 316.32C390.883 317.04 392.443 317.4 394.843 317.4H403.663C413.143 317.4 417.883 322.14 417.883 331.62V351.78C417.883 361.26 413.143 366 403.663 366H391.603C382.123 366 377.383 361.26 377.383 351.78V342.96H389.623V349.98C389.623 352.26 389.923 353.76 390.523 354.48C391.243 355.2 392.803 355.56 395.203 355.56H400.063C402.343 355.56 403.843 355.2 404.563 354.48C405.283 353.76 405.643 352.26 405.643 349.98Z" fill="#17A1CC"/>
<path d="M354.88 146.76L377.56 204H364.24L348.4 158.46L332.56 204H319.24L341.92 146.76L321.04 92.04H334.36L348.4 135.6L362.44 92.04H375.76L354.88 146.76Z" fill="white"/>
</svg>
