<svg width="32" height="32" viewBox="0 0 32 32" fill="none" xmlns="http://www.w3.org/2000/svg">
<path d="M20.4415 23.3505V27.1346C20.4415 27.7362 20.2483 28.2132 19.862 28.5659C19.4783 28.9159 18.9662 29.0909 18.3258 29.0909C17.6776 29.0909 17.1629 28.9185 16.7818 28.5736C16.4007 28.2262 16.2101 27.7452 16.2101 27.1308V23.3505H17.1902V27.1385C17.1902 27.5171 17.2861 27.8062 17.4779 28.0058C17.6698 28.2055 17.9524 28.3053 18.3258 28.3053C19.0829 28.3053 19.4614 27.906 19.4614 27.1074V23.3505H20.4415Z" fill="#17A1CC"/>
<path d="M25.5868 24.1439H23.8212V29.0131H22.845V24.1439H21.0949V23.3505H25.5868V24.1439Z" fill="#17A1CC"/>
<path d="M30.5455 27.1696C30.4885 27.7738 30.2655 28.2456 29.8766 28.5853C29.4877 28.9224 28.9704 29.0909 28.3248 29.0909C27.8737 29.0909 27.4757 28.9846 27.1308 28.772C26.7886 28.5568 26.5241 28.2521 26.3375 27.858C26.1508 27.4639 26.0535 27.0063 26.0458 26.4852V25.9562C26.0458 25.4221 26.1404 24.9515 26.3297 24.5445C26.5189 24.1374 26.7899 23.8237 27.1425 23.6033C27.4977 23.3829 27.9074 23.2727 28.3715 23.2727C28.9963 23.2727 29.4993 23.4425 29.8805 23.7822C30.2616 24.1218 30.4833 24.6015 30.5455 25.2212H29.5655C29.5188 24.8141 29.3995 24.5211 29.2077 24.3422C29.0184 24.1607 28.7397 24.07 28.3715 24.07C27.9437 24.07 27.6144 24.2268 27.3836 24.5406C27.1555 24.8517 27.0388 25.3093 27.0336 25.9134V26.4151C27.0336 27.027 27.1425 27.4937 27.3603 27.8152C27.5807 28.1367 27.9022 28.2975 28.3248 28.2975C28.7111 28.2975 29.0015 28.2106 29.196 28.0369C29.3904 27.8632 29.5136 27.5741 29.5655 27.1696H30.5455Z" fill="#17A1CC"/>
<path fill-rule="evenodd" clip-rule="evenodd" d="M16.9091 8.77361V6.90906H19.6363V5.09088H12.3636V6.90906H15.0909V8.77361C10.5036 9.23088 6.90906 13.1118 6.90906 17.8182C6.90906 22.4088 10.3294 26.2157 14.7555 26.8242V21.8959H24.124C24.7424 20.6689 25.0909 19.2834 25.0909 17.8182C25.0909 13.1118 21.4963 9.23088 16.9091 8.77361ZM23.2092 23.3505H21.0948V24.1439H22.5232C22.7666 23.8929 22.9957 23.628 23.2092 23.3505ZM20.4414 25.7484V23.3505H19.4614V26.2244C19.7987 26.085 20.1258 25.9258 20.4414 25.7484ZM17.1901 26.8315V23.3505H16.21V26.9067C16.5413 26.8991 16.8683 26.8738 17.1901 26.8315ZM20.5454 18.7272H15.0909V13.2727H16.9091V16.9091H20.5454V18.7272Z" fill="#17A1CC"/>
</svg>
